<svg id="Layer_1" enable-background="new 0 0 512 512" height="300" viewBox="0 0 512 512" width="512" xmlns="http://www.w3.org/2000/svg"><g><g><path d="m97.448 339.398h-44.278c-4.142 0-7.5 3.358-7.5 7.5s3.358 7.5 7.5 7.5h44.278c4.142 0 7.5-3.358 7.5-7.5s-3.358-7.5-7.5-7.5z"/><path d="m97.448 309.369h-44.278c-4.142 0-7.5 3.358-7.5 7.5s3.358 7.5 7.5 7.5h44.278c4.142 0 7.5-3.358 7.5-7.5s-3.358-7.5-7.5-7.5z"/><path d="m460.818 364.4h-6.445v-6.421c0-6.501-5.288-11.79-11.788-11.79h-24.369c-6.501 0-11.789 5.289-11.789 11.79v6.421h-6.444c-6.501 0-11.789 5.289-11.789 11.79v24.405c0 6.501 5.288 11.79 11.789 11.79h6.444v6.45c0 6.501 5.288 11.79 11.789 11.79h24.369c6.5 0 11.788-5.289 11.788-11.79v-6.45h6.445c6.501 0 11.789-5.289 11.789-11.79v-24.405c0-6.501-5.288-11.79-11.789-11.79zm-3.211 32.984h-10.734c-4.143 0-7.5 3.358-7.5 7.5v10.74h-17.946v-10.74c0-4.142-3.357-7.5-7.5-7.5h-10.733v-17.984h10.733c4.143 0 7.5-3.358 7.5-7.5v-10.711h17.946v10.711c0 4.142 3.357 7.5 7.5 7.5h10.734z"/><path d="m472.607 318.575v-55.856c0-3.075-.803-5.963-2.201-8.476l-44.484-100.114c-1.203-2.709-3.89-4.455-6.854-4.455h-140.346c-10.001-29.55-10.776-68.734-.766-92.585.948-2.261.732-4.843-.579-6.915-1.313-2.071-3.554-3.371-6.004-3.48l-105.399-4.688c-3.594-.159-6.815 2.271-7.637 5.787-2.026 8.677-3.18 17.51-3.501 26.403l-33.989 6.578c-3.527.683-6.075 3.771-6.075 7.363 0 22.023 4.134 42.906 12.041 61.537h-73.274c-2.967 0-5.655 1.749-6.857 4.461l-44.028 99.363c-1.672 2.681-2.654 5.835-2.654 9.221v131.255c0 9.666 7.85 17.529 17.498 17.529h191.625c4.142 0 7.5-3.358 7.5-7.5s-3.358-7.5-7.5-7.5h-191.625c-1.354 0-2.498-1.158-2.498-2.529v-131.255c0-1.379 1.121-2.5 2.498-2.5h191.625c4.142 0 7.5-3.358 7.5-7.5s-3.358-7.5-7.5-7.5h-186.394l35.69-80.544h75.863c1.157 2.001 2.345 3.98 3.601 5.911 3.074 4.722 6.426 9.171 10.008 13.352h-11.391c-13.685 0-21.069 10.686-21.069 20.739s7.384 20.739 21.069 20.739h119.553c.016 0 .031.002.047.002.008 0 .017-.002.025-.002h78.987c14.741 0 22.454-10.433 22.454-20.739s-7.713-20.739-22.454-20.739h-30.954c-8.527-2.386-14.997-11.514-19.09-19.263h129.126l35.789 80.544h-206.182c-4.142 0-7.5 3.358-7.5 7.5s3.358 7.5 7.5 7.5h211.308c1.354 0 2.498 1.145 2.498 2.5v48.747c-8.515-3.022-17.669-4.683-27.207-4.683-44.994 0-81.6 36.616-81.6 81.623 0 2.733.141 5.433.404 8.097h-105.403c-4.142 0-7.5 3.358-7.5 7.5s3.358 7.5 7.5 7.5h108.35c9.989 33.775 41.278 58.497 78.249 58.497 44.994 0 81.6-36.603 81.6-81.594 0-29.566-15.798-55.509-39.393-69.831zm-336.107-108.159c-5.631 0-6.069-4.393-6.069-5.739s.438-5.739 6.069-5.739h26.674c5.255 4.321 10.826 8.157 16.651 11.479h-43.325zm13.955-48.013c-12.525-19.249-19.584-42.684-20.565-68.101l25.209-4.879c1.689 23.757 9.283 47.548 22.477 69.564 12.258 20.453 28.745 38.123 46.834 50.734-29.535-3.535-56.599-20.657-73.955-47.318zm150.422 36.188c.722.226 1.499.346 2.256.346h31.979c5.496 0 7.454 2.965 7.454 5.739s-1.958 5.739-7.454 5.739h-77.676c-25.376-9.348-50.346-31.36-66.994-59.139-17.803-29.705-24.371-62.843-18.754-94.001l88.978 3.957c-9.17 32.221-5.069 78.722 10.512 109.248 7.908 15.495 18.169 25.191 29.699 28.111zm129.523 256.409c-36.724 0-66.6-29.874-66.6-66.594 0-36.736 29.876-66.623 66.6-66.623s66.6 29.887 66.6 66.623c0 36.72-29.876 66.594-66.6 66.594z"/></g></g></svg>